<?xml version="1.0" encoding="UTF-8"?><svg id="Layer_2" xmlns="http://www.w3.org/2000/svg" viewBox="0 0 156.7 179.01"><defs><style>.cls-1{fill:#ebc99c;}.cls-2{fill:#fff;}.cls-3{fill:#995a05;}.cls-4{fill:#59acc9;}.cls-5{fill:#d69338;}.cls-6{fill:#9574ad;}.cls-7{fill:#ad9574;}.cls-8{fill:#5b3d73;}.cls-9{fill:#735c3d;}.cls-10{fill:#c89ceb;}.cls-11{fill:#4d3180;}.cls-12{fill:#cabad6;}.cls-13{fill:#3b0366;}.cls-14{fill:#ffb09d;}.cls-15{fill:#e88883;}</style></defs><g id="Layer_1-2"><g><path class="cls-14" d="m55.44,51.87s8.22-3.11,11-1.67c2.78,1.44,0,10.31,0,10.31l-8.01,3.67-3.77-4.8.78-7.51Z"/><path class="cls-15" d="m46.7,81.22s1.7,4.32,4,5.58c2.31,1.26,4.22-4.15,4.22-4.15l-4.23-3.07-3.99,1.64Z"/><path class="cls-15" d="m55.45,76.63s6.32,5.62,6.66,7.01c.34,1.39-1.8,7.98-3.43,7.25-1.63-.73-.25-5.74-.25-5.74,0,0-8.16-1.22-8.47-4.09-.31-2.87,5.5-4.43,5.5-4.43Z"/><path d="m56.87,85.51c-4.15,0-6.59-2.98-6.61-3.01-.07-.09-.06-.23.03-.3.09-.07.23-.06.3.03.03.04,2.94,3.58,7.8,2.71.12-.02.23.06.25.18.02.12-.06.23-.18.25-.56.1-1.09.14-1.6.14Z"/><rect class="cls-4" x="41.39" y="89.15" width="33.38" height="23.22" rx="2.63" ry="2.63" transform="translate(137.59 185.63) rotate(166.83)"/><rect class="cls-5" x="43.3" y="88.7" width="33.38" height="23.22" rx="2.63" ry="2.63" transform="translate(141.27 184.31) rotate(166.83)"/><path class="cls-5" d="m44.24,94.15c-1.17-5.01,3.96-10.52,11.44-12.27,7.48-1.75,14.52.9,15.7,5.91,1.17,5.01-3.96,10.52-11.44,12.27-7.48,1.75-14.52-.9-15.7-5.91Zm1.8-.42c.94,4.02,6.99,6.05,13.47,4.53,6.49-1.52,11-6.02,10.06-10.04-.94-4.02-6.99-6.05-13.47-4.53-6.49,1.52-11,6.02-10.06,10.04Z"/><path class="cls-2" d="m43.98,104.25c-.11,0-.22-.08-.24-.19-.03-.13.05-.27.19-.3l29.85-7.03c.14-.03.27.05.3.19.03.13-.05.27-.19.3l-29.85,7.03s-.04,0-.06,0Z"/><path class="cls-6" d="m35.86,24.51s9.69,3.4,15.54,22.04c6.12,19.51,5.54,31.62,5.54,31.62l-12,3.78-10.66-22.46,1.58-34.99Z"/><path class="cls-5" d="m65.27,49.37s9.17-1.47,15.5-5.49c6.33-4.01,14.68-14.42,14.68-14.42l.5,28.57s-7.83,3.67-15.34,4.5c-7.51.83-15.34,0-15.34,0v-13.17Z"/><polygon class="cls-15" points="43.75 154.03 43.75 162.7 58.02 162.09 58.02 154.03 43.75 154.03"/><polygon class="cls-15" points="8.47 153.11 8.47 161.23 22.61 160.66 22.61 153.11 8.47 153.11"/><path class="cls-11" d="m39.19,63.62s11.03,17.47,17.56,45.43c5.96,25.51,7.25,46.6,7.25,46.6h-25.79s-2.87-20.8-3.63-29.03c-.76-8.23-3.31-19.24-3.31-19.24,0,0-3.54,47.47-4.38,48.27-.84.8-25.53.18-25.26-.91s5.6-77.87,6.83-82.95c4.64-19.08,30.73-8.17,30.73-8.17Z"/><path class="cls-3" d="m26.12,174.65c0,1.43-.48,3.07-1.47,3.48-.99.41-8.96,1.27-15.94.66-6.68-.58-6.59-.34-7.08-.95-.24-.31-1.25-2.48-.71-3.86.03-.07.06-.15.09-.22.27-.7.56-1.38.77-1.86.21-.46.46-.89.76-1.32.72-1,2.15-3.06,2.52-4.13.48-1.42,1.21-4.49,1.71-5.94.37-1.08,4.75-2.77,6.87-3.53.73-.26,1.52-.33,2.28-.19,2.13.39,6.53,1.26,7.28,1.88.97.81,1.47,7.58,1.47,8.6v1.02c0,.95.65,2.83,1.08,4.39.11.39.21.76.28,1.09.07.33.11.62.11.86Z"/><path class="cls-10" d="m31.28,107.64c-.16-.01-.26-.13-.25-.27,0-.1.81-10.32,1.04-14.85.23-4.52.24-6.69.24-6.71,0-.1.06-.19.15-.23l8.35-3.72c.13-.05.27,0,.33.13.06.13,0,.27-.13.33l-8.21,3.65c0,.58-.04,2.73-.24,6.57-.23,4.54-1.04,14.76-1.05,14.86,0,.13-.12.23-.25.23Z"/><path class="cls-6" d="m20.36,23.93s-7.44-.03-11.45,3.97c-4.01,4-.64,43.15-.64,43.15,0,0,13.88,1.66,21.47,0,7.59-1.66,11.91-4,11.91-4,0,0-2.07-37.36-4.16-41.22-2.09-3.85-17.13-1.9-17.13-1.9Z"/><path class="cls-15" d="m18.37,21.13l.04,4.92s1.88,1.55,4.25,1.55c3.21,0,4.3-2.48,4.3-2.48l-.12-5.77-8.47,1.77Z"/><path d="m18.37,21.01s2.3,4.73,5.93,4.12c2.93-.49,2.54-5.36,2.54-5.36l-8.47,1.24Z"/><path class="cls-15" d="m28.3,8.17s1.76,8.37-.9,12.43c-2.66,4.06-6.23,2.94-7.84,1.75-2.17-1.61-2.65-3.89-2.65-3.89,0,0-2.94.64-3.96-1.75-1.08-2.51.73-4.58,2.2-4.72,1.47-.15,1.65.12,1.65.12l-.48-2.69s8.8-10.12,11.98-1.25Z"/><path class="cls-15" d="m26.94,12.13s4.44-1.98,4.84,1.47c.47,4-4.32,4.12-4.32,4.12l-.52-5.59Z"/><path d="m29.23,15.68s-.08-.01-.12-.03c-.12-.07-.16-.22-.1-.34l1.45-2.58c.07-.12.22-.16.34-.1.12.07.16.22.1.34l-1.45,2.58c-.05.08-.13.13-.22.13Z"/><path d="m16.37,15.99c-.06,0-.11-.02-.16-.06l-2.31-1.91c-.11-.09-.12-.25-.03-.35.09-.11.25-.12.35-.03l2.31,1.91c.11.09.12.25.03.35-.05.06-.12.09-.19.09Z"/><path d="m14.28,16.38c-.07,0-.15-.03-.2-.1-.08-.11-.07-.27.04-.35l1.33-1.03c.11-.08.27-.07.35.04.08.11.07.27-.04.35l-1.33,1.03s-.1.05-.15.05Z"/><path d="m30.95,14.89h-1.28c-.14,0-.25-.11-.25-.25s.11-.25.25-.25h1.28c.14,0,.25.11.25.25s-.11.25-.25.25Z"/><path d="m21.18,13.81c-.13,0-.24-.1-.25-.22l-.15-1.44c-.01-.14.08-.26.22-.28.14-.01.26.09.28.22l.15,1.44c.01.14-.08.26-.22.28,0,0-.02,0-.03,0Z"/><path d="m26.69,13.25c-.13,0-.24-.1-.25-.22l-.15-1.44c-.01-.14.08-.26.22-.28.14-.01.26.09.28.22l.15,1.44c.01.14-.08.26-.22.28,0,0-.02,0-.03,0Z"/><path d="m24.34,17.14c-.17-.02-.27-.15-.25-.29.32-2.15-.46-3.88-.47-3.9-.06-.12,0-.27.12-.33.12-.06.27,0,.33.12.03.08.85,1.89.5,4.18-.02.12-.12.21-.25.21Z"/><path d="m26.95,10.63s-.08,0-.12-.03c-.47-.24-1.18-.14-1.42-.08-.13.03-.27-.05-.3-.18-.03-.13.05-.27.18-.3.04,0,1.04-.26,1.77.12.12.06.17.21.11.34-.04.09-.13.13-.22.13Z"/><path d="m20,11.31c-.06,0-.13-.02-.17-.07-.1-.1-.1-.25,0-.35.57-.59,1.6-.66,1.65-.67.16-.03.26.1.27.23,0,.14-.09.26-.23.27,0,0-.88.07-1.32.52-.05.05-.11.08-.18.08Z"/><path d="m18.11,12.85s2.14-1.45,2.01-3.64c-.13-2.19-.61-2.75-.61-2.75,0,0,2.2,1.17,4.93.34,3.09-.93,4.8-5.18,3.11-6.34-1.88-1.29-6.45.53-6.45.53,0,0-4.79-.26-7.91,3.54-3.12,3.8.38,8.28.38,8.28,0,0,1.07-1.75,4.54.04Z"/><path d="m23.89,19.47c-1.2,0-2.18-.99-2.22-1.04-.1-.1-.09-.26,0-.35.1-.09.26-.09.35,0,.01.01,1.15,1.18,2.34.82.13-.04.27.03.31.17.04.13-.03.27-.17.31-.21.06-.42.09-.62.09Z"/><path d="m26.69,3.16s2.06,1.88,2.54,4.17c.48,2.29,0,4.23,0,4.23h-.46s-1.11-5.56-2.9-6.07c-1.79-.51.83-2.33.83-2.33Z"/><path class="cls-10" d="m8.82,82.2c-.08,0-.16-.04-.2-.11-.08-.11-.05-.27.06-.35,4.3-3,5.43-7.37,5.44-7.41.03-.13.17-.22.3-.18.13.03.22.17.18.3-.05.19-1.17,4.59-5.64,7.7-.04.03-.09.04-.14.04Z"/><polygon class="cls-14" points="132.79 117.12 146.39 117.86 142.86 130.85 131.89 132.9 132.79 117.12"/><path class="cls-7" d="m93.76,59.49s-18.35,59.28-4.28,70.52c14.07,11.24,44.65,5.91,44.65,5.91l1.48-23.78-16.8-1.53-18.19-48.8-6.86-2.31Z"/><polygon class="cls-14" points="123.05 152.78 121.35 166.29 108.64 161.85 107.37 150.76 123.05 152.78"/><path class="cls-7" d="m122.22,61.41s3.58,12.87,3.17,21.33c-.42,8.46-1,27.63-.75,31.01.25,3.38,2.15,40.72,2.15,40.72,0,0-6.39,2-13.36,2.13-6.97.13-10.87-.55-10.87-.55,0,0-7.58-41.56-7.16-53.97.42-12.41.9-40.19.9-40.19l25.91-.48Z"/><path class="cls-8" d="m85.92,176.85c-.34-.04-.58-.37-.52-.73.25-1.69,1.18-6.42,3.81-8.47,3.23-2.52,10.08-3.63,12.55-5.32,2.47-1.69,5.19-5.69,6.69-4.97,1.5.72,4.38,4.11,8.43,3.54,4.05-.57,5.9-1.59,7.01-.62,1.11.96,1.99,14.71,1.54,15.54-.45.83-6.18.18-6.68.32-.5.14-1.96-3.11-2.89-2.6-.93.51-2.04,2.07-3.41,2.8-1.28.68-22.43.98-26.53.51Z"/><path class="cls-3" d="m80.54,177.55c.34-.04.58-.37.52-.73-.25-1.69-1.18-6.42-3.81-8.47-3.23-2.52-10.08-3.63-12.55-5.32-2.47-1.68-5.19-5.69-6.69-4.97-1.5.72-4.38,4.11-8.43,3.54s-5.9-1.59-7.01-.62c-1.11.96-1.99,14.71-1.54,15.54.45.83,6.18.18,6.68.32s1.96-3.11,2.89-2.6c.93.51,2.04,2.07,3.41,2.8,1.27.68,22.43.98,26.53.51Z"/><path class="cls-8" d="m156.5,154.49c-.04.34-.37.58-.73.53-1.69-.25-6.43-1.16-8.49-3.78-2.53-3.22-3.67-10.07-5.36-12.53-1.69-2.46-5.71-5.17-5-6.67.72-1.51,4.09-4.39,3.51-8.44-.58-4.05-1.61-5.9-.65-7.01.96-1.11,14.71-2.05,15.53-1.6.83.45.2,6.18.34,6.68.14.49-3.1,1.97-2.59,2.9.51.93,2.07,2.03,2.81,3.4.69,1.27,1.06,22.42.6,26.53Z"/><path class="cls-9" d="m98.8,133.77c-.12,0-.23-.09-.25-.21-3.59-21.44-.07-56.03.24-59l-5.57-1.82c-.13-.04-.2-.18-.16-.32.04-.13.18-.21.32-.16l5.76,1.88c.11.04.18.15.17.26-.04.37-3.99,36.83-.27,59.07.02.14-.07.26-.21.29-.01,0-.03,0-.04,0Z"/><path class="cls-9" d="m120.37,75.51c-5.01,0-6.9-5.18-6.92-5.24-.05-.13.02-.27.15-.32.13-.05.27.02.32.15.08.23,2.09,5.71,7.64,4.81.15-.02.26.07.29.21.02.14-.07.26-.21.29-.44.07-.86.1-1.26.1Z"/><path class="cls-9" d="m124.9,128.61c-.14,0-.25-.11-.25-.25l-.32-17.22c0-.14.11-.25.25-.25.13.02.25.11.25.25l.32,17.22c0,.14-.11.25-.25.25h0Z"/><path class="cls-5" d="m99.96,25.52s-4.9,3.53-6.66,6.75c-1.76,3.21-1.52,34.16-1.52,34.16,0,0,6.85,2.97,15.29,2.57,8.43-.39,16.11-3.74,16.11-3.74,0,0-6.98-40.66-9.49-41.87-2.52-1.21-6.1-.82-13.72,2.14Z"/><path class="cls-14" d="m106.86,18.44l.77,6.56s-.96,2.03-4.77,2.79c-2.83.57-3.91.04-3.91.04v-3.37s.02-3.29.02-3.29l6.76-2.34,1.13-.39Z"/><path d="m105.18,18.44c.02.17-.01.39-.07.64-.81,3.39-4.73,5.62-6.28,6.06v-4l6.34-2.7Z"/><path class="cls-14" d="m95.75,6.38s-2.48,8.63-.59,13.05,5.97,3.14,8.36,1.92c2.38-1.22,3.34-2.91,3.34-2.91,0,0,2.44.48,3.71-1.9,1.27-2.38-.02-4.74-1.43-5.14-1.41-.39-2.87.78-2.87.78l.93-2.54s-6.83-11.36-11.45-3.27Z"/><path d="m106.9,15.69c-.07,0-.14-.03-.18-.08-.09-.1-.09-.26.02-.35l2.71-2.47c.1-.09.26-.08.35.02.09.1.09.26-.02.35l-2.71,2.47s-.11.07-.17.07Z"/><path d="m109.6,15.33s-2.04-.28-2.04-.28c-.14-.02-.23-.14-.21-.28.02-.14.14-.22.28-.21l2.01.27c.14.02.23.14.21.28-.02.12-.12.22-.25.22Z"/><path d="m97.68,16.75c-.1,0-.19-.06-.23-.15-1.09-2.54.06-4.58.11-4.66.07-.12.22-.16.34-.09.12.07.16.22.09.34-.01.02-1.07,1.91-.08,4.21.05.13,0,.27-.13.33-.03.01-.07.02-.1.02Z"/><path d="m95.74,13c-.15,0-.26-.12-.25-.26l.07-1.57c0-.14.13-.23.26-.24.14,0,.25.12.24.26l-.07,1.57c0,.13-.12.24-.25.24Z"/><path d="m99.58,12.92c-.15,0-.26-.12-.25-.26l.07-1.57c0-.14.13-.23.26-.24.14,0,.25.12.24.26l-.07,1.57c0,.13-.12.24-.25.24Z"/><path class="cls-14" d="m121.98,91.37s.54,1.65,1.77,1.51c1.24-.14.83-4.07.83-4.07l-2.6,2.56Z"/><path d="m106.28,12.18s-4.25.37-5.74-2.2c-2.79-4.81-4.97-2.12-4.97-2.12l-.7,2.61s-2.19-6.23-.7-7.97c1.49-1.74,8.21-.73,10.52.73,2.31,1.46,2.91,2.32,2.91,2.32,0,0,1.37-.18,2.59,1.14,1.22,1.31.09,5.49.09,5.49,0,0-1.91-1.14-3.99,0Z"/><rect class="cls-13" x="118.99" y="92.61" width="33.38" height="23.22" rx="2.63" ry="2.63" transform="translate(-18.88 30.85) rotate(-12.13)"/><rect class="cls-11" x="117.06" y="93.03" width="33.38" height="23.22" rx="2.63" ry="2.63" transform="translate(-19.01 30.45) rotate(-12.13)"/><path class="cls-11" d="m133.7,104.39c-7.51,1.62-14.51-1.17-15.59-6.2-1.08-5.03,4.15-10.44,11.66-12.06,7.51-1.62,14.51,1.17,15.59,6.2,1.08,5.03-4.15,10.44-11.66,12.06Zm-3.54-16.45c-6.52,1.4-11.11,5.82-10.24,9.86.87,4.04,6.87,6.18,13.39,4.78,6.52-1.4,11.11-5.82,10.24-9.86-.87-4.04-6.87-6.18-13.39-4.78Z"/><path class="cls-14" d="m123.39,78.55s-2.79,7.69-1.79,11.5l2.42-.98s1.84,5.35,4.27,5.32c1.18-.01,1.94-2.38,3.6-3.33,1.66-.94,4.58-2.52,4.96-4.1.38-1.58-3.2-9.86-4.96-10.58-1.76-.72-8.5,2.17-8.5,2.17Z"/><path class="cls-5" d="m112.09,22.86s9.51,1.7,14.71,10.97c4.03,7.18,9.57,43.93,8.82,44.98-.75,1.05-11.76,4.47-14.01,3.42-2.25-1.05-10.51-33.25-10.51-33.25l.99-26.12Z"/><path d="m123.78,89.51c-.1,0-.2-.07-.23-.17l-1.12-3.47c-.04-.13.03-.26.16-.31.13-.04.27.03.31.16l1.12,3.47c.04.13-.03.26-.16.31-.03,0-.05.01-.08.01Z"/><path class="cls-13" d="m119.82,107.78c-.12,0-.22-.08-.24-.2-.03-.13.06-.27.19-.3l29.99-6.41c.14-.03.27.06.3.19.03.13-.06.27-.19.3l-29.99,6.41s-.04,0-.05,0Z"/><path class="cls-1" d="m99.22,26.08s-2.12,3.72-1.58,4.17c.54.46,2.9-2.63,3.69-2.07s3.16,1.97,4.21,2.12,3.05-6.65,2.49-6.92l-.56-.27s-2.29,3.1-5.08,4c-2.79.9-3.19-1.03-3.19-1.03Z"/><path class="cls-1" d="m99.96,28.09s-1.84,12.55-1.71,23.06c.13,10.51.81,17.3.81,17.3l2.67.36s-1.05-17.35-.79-22.93c.31-6.75,1.43-17.93,1.43-17.93,0,0-1.16-.64-2.41.14Z"/><path class="cls-2" d="m121.98,78.41c-.12,0-.22-.08-.24-.2-.03-.13.06-.27.19-.3l13.49-2.9c.13-.03.27.06.3.19.03.13-.06.27-.19.3l-13.49,2.9s-.04,0-.05,0Z"/><path class="cls-2" d="m91.96,61.66c-.15,0-.26-.13-.25-.26l.57-10.4c0-.14.1-.24.26-.24.14,0,.24.13.24.26l-.57,10.4c0,.13-.12.24-.25.24Z"/><path class="cls-2" d="m100.7,31.28c-.16-.01-.26-.13-.25-.27l.12-1.45c.01-.14.14-.25.27-.23.14.01.24.13.23.27l-.12,1.45c-.01.13-.12.23-.25.23Z"/><path class="cls-2" d="m115.79,67.23c-.1,0-.19-.06-.23-.15-.49-1.14-4.74-11.16-3.44-13.28.17-.28.43-.43.75-.45.47-.02.87.14,1.16.49,1.24,1.54-.05,6.48-.25,7.19.77,2.29,1.68,4.55,2.24,5.86.05.13,0,.27-.13.33-.03.01-.07.02-.1.02Zm-2.82-13.39s-.05,0-.07,0c-.16,0-.27.08-.35.21-.51.82.08,3.38.94,6.08.44-1.83.96-4.98.15-5.99-.17-.21-.38-.31-.66-.31Z"/><path d="m100.54,10.24s-.05,0-.07-.01l-1.71-.51c-.13-.04-.21-.18-.17-.31.04-.13.18-.21.31-.17l1.71.51c.13.04.21.18.17.31-.03.11-.13.18-.24.18Z"/><path d="m94.95,10.24c-.1,0-.2-.06-.24-.17-.05-.13.02-.27.15-.32l1-.36c.13-.05.27.02.32.15.05.13-.02.27-.15.32l-1,.36s-.06.01-.08.01Z"/><path d="m100.1,18.9c-.62,0-1.23-.31-1.27-.33-.08-.04-.13-.12-.13-.2,0-.09.03-.17.1-.22l2.46-1.85c.08-.06.18-.07.27-.02.08.04.14.13.13.23,0,.06-.05,1.52-.73,2.12-.23.21-.53.28-.82.28Zm-.65-.62c.37.12.87.2,1.14-.04.28-.25.43-.77.5-1.2l-1.65,1.24Z"/><path class="cls-15" d="m44.24,51.01s9.56-1.86,10.37-1.47l3.2,1.54-2.37.79s6.12,2.5,5.56,3.5c-.56,1-2.92,2-2.92,2,0,0-.71,7.57-2.68,8.12-1.96.55-13.75-2.58-13.75-2.58l2.59-11.9Z"/><path class="cls-12" d="m40.52,60.99c-.13,0-.24-.1-.25-.23l-1.66-18.53c-.01-.14.09-.26.23-.27.15-.02.26.09.27.23l1.66,18.53c.01.14-.09.26-.23.27,0,0-.02,0-.02,0Z"/><path class="cls-2" d="m64,165.46c-.12,0-.22-.08-.24-.2-.03-.13.06-.27.19-.3.07-.01,6.89-1.5,6.74-5.04-.02-.45-.14-.72-.35-.79-.62-.22-1.95.71-3.33,1.93-1.27,1.53-2.73,2.75-2.85,2.84-.1.08-.25.08-.34-.02-.09-.09-.09-.24,0-.34.25-.28,1.47-1.63,2.85-2.85,1.12-1.34,2.06-2.88,1.7-4-.03-.09-.11-.31-.23-.32-.71,0-2.57,3.22-3.91,6.23-.06.13-.2.18-.33.13-.13-.06-.18-.2-.13-.33.68-1.54,3.01-6.52,4.36-6.52.24.01.53.14.71.67.28.88-.08,1.94-.72,2.98.93-.66,1.8-1.07,2.38-.86.42.15.65.57.68,1.24.17,3.96-6.83,5.49-7.13,5.55-.02,0-.04,0-.05,0Z"/><path class="cls-2" d="m16.31,168.54c-1.13,0-2.05-.43-2.07-.44-.12-.06-.18-.21-.12-.33.06-.13.21-.18.33-.12.13.06,3.22,1.51,4.74-1.48.31-.61.32-.92.23-1.01-.34-.32-2.22.43-3.76,1.34-.11.06-.25.04-.33-.06-.08-.1-.07-.24.03-.33.87-.84,3.12-3.33,3.09-4.68,0-.25-.09-.44-.25-.58-.15-.13-.3-.17-.49-.13-1.18.25-2.87,3.4-3.42,4.59-.06.13-.21.18-.33.12-.13-.06-.18-.21-.12-.33.21-.46,2.13-4.53,3.77-4.87.34-.07.66.01.92.25.27.24.41.56.42.95.03,1.17-1.23,2.84-2.19,3.93,1.11-.54,2.49-1.04,3.01-.55.46.44.02,1.31-.13,1.6-.87,1.71-2.21,2.14-3.33,2.14Z"/><path class="cls-1" d="m105.47,163.62s-.04,0-.07,0l-3.71-1.04c-.13-.04-.21-.18-.17-.31s.17-.21.31-.17l3.71,1.04c.13.04.21.18.17.31-.03.11-.13.18-.24.18Z"/><path class="cls-1" d="m103.61,165.46s-.05,0-.08-.01l-4.78-1.55c-.13-.04-.2-.18-.16-.32.04-.13.19-.2.32-.16l4.78,1.55c.13.04.2.18.16.32-.04.11-.13.17-.24.17Z"/><path class="cls-1" d="m142.5,139.72s-.06,0-.09-.02c-.13-.05-.19-.2-.14-.33l1.46-3.57c.05-.13.2-.19.33-.14.13.05.19.2.14.33l-1.46,3.57c-.04.1-.13.16-.23.16Z"/><path class="cls-1" d="m143.47,142.77s-.07,0-.1-.02c-.12-.06-.18-.21-.12-.33l2.1-4.57c.06-.13.21-.18.33-.12.12.06.18.21.12.33l-2.1,4.57c-.04.09-.13.15-.23.15Z"/><path class="cls-6" d="m8.9,27.91S-4.65,43.89,1.68,60.29c5.86,15.18,42.02,4.65,42.02,4.65l.73-14.83-21.03-6.16-14.5-16.05Z"/><path class="cls-15" d="m58.51,81.71c.52.34.93.82,1.23,1.36,1.04,1.82,3.05,7.44,1.4,8.91-1.59,1.41-2.81-1.68-2.81-1.68,0,0,.48,2.68-1.46,2.39-1.62-.25-2.01-1.96-2.01-1.96,0,0,.23,2.84-2.01,1.62-2.25-1.22-3.82-7.18-3.57-9.3.25-2.12,2.91-.37,2.91-.37,0,0,.57-2.25,1.84-2.14,1.34.12,1.69,1.96,1.69,1.96,0,0,.91-1.97,2.79-.77Z"/><path d="m58.33,90.55c-.1,0-.2-.06-.24-.17l-2.51-7.14c-.04-.13.02-.27.15-.32.13-.04.27.02.32.15l2.51,7.14c.04.13-.02.27-.15.32-.03,0-.06.01-.08.01Z"/><path d="m54.86,90.97c-.1,0-.2-.07-.24-.17l-2.43-7.19c-.04-.13.03-.27.16-.32.13-.04.27.03.32.16l2.43,7.19c.04.13-.03.27-.16.32-.03,0-.05.01-.08.01Z"/><path class="cls-14" d="m57.15,56.6c.55.15,1.03.45,1.42.8,1.34,1.21,4.34,5.18,3.09,6.68-1.2,1.44-2.95-.72-2.95-.72,0,0,.99,2-.88,2.17-1.56.15-2.27-1.11-2.27-1.11,0,0,.79,2.17-1.55,1.69-2.34-.48-5.01-4.82-5.2-6.53-.19-1.71,2.64-.9,2.64-.9,0,0,.08-1.88,1.28-2.06,1.27-.19,1.97,1.18,1.97,1.18,0,0,.45-1.74,2.44-1.19Z"/><path d="m58.71,63.61c-.08,0-.16-.04-.21-.12l-3.32-5.25c-.07-.12-.04-.27.08-.34.12-.07.27-.04.34.08l3.32,5.25c.07.12.04.27-.08.34-.04.03-.09.04-.13.04Z"/><path d="m55.56,64.67c-.08,0-.16-.04-.21-.11l-3.38-5.16c-.08-.12-.04-.27.07-.35.11-.08.27-.04.35.07l3.38,5.16c.08.12.04.27-.07.35-.04.03-.09.04-.14.04Z"/><path class="cls-12" d="m17.64,33.17c-.13,0-.24-.03-.34-.09-1.07-.71.4-5.62.87-7.1.03-.09.1-.15.19-.17.09-.02.18,0,.24.08,0,.01,1.03,1.09,4.1,1.47,2.99.37,4.02-2.29,4.03-2.32.03-.08.11-.15.2-.16.09-.01.18.02.24.09,1.22,1.57,4.03,5.29,3.74,6.06-.05.13-.15.21-.29.24-.53.09-1.65-.61-3.48-1.74-1.06-.66-2.65-1.66-2.99-1.61-.05.05-.33.33-.68.68-2.82,2.8-4.82,4.57-5.81,4.57Zm.9-6.68c-.86,2.78-1.46,5.84-.96,6.17.29.2,1.49-.41,5.52-4.42.14-.13.26-.25.36-.36-.26.01-.54,0-.83-.04-2.35-.29-3.58-.98-4.1-1.37Zm6.26,1.12c.56.25,1.37.74,2.59,1.49,1.03.64,2.54,1.58,3.03,1.67-.12-.63-1.77-3.05-3.41-5.18-.3.55-.98,1.53-2.21,2.01Z"/><path class="cls-12" d="m15.15,50.11c-.13,0-.24-.1-.25-.24,0-.14.1-.25.24-.26.1,0,10.31-.49,13.73-.28.14,0,.24.13.23.27,0,.14-.1.23-.27.23-3.39-.21-13.57.28-13.67.28h-.01Z"/><path class="cls-12" d="m18.2,49.82c-.88-.11-5.16-.71-5.54-1.94-.07-.21-.06-.53.33-.88.35-.31.77-.44,1.27-.41,1.83.13,4.04,2.72,4.13,2.83.07.08.08.19.03.28-.04.08-.13.13-.22.13Zm-4.09-2.74c-.31,0-.56.1-.79.29-.24.21-.2.32-.19.36.19.6,2.5,1.19,4.41,1.5-.72-.75-2.15-2.06-3.32-2.14-.04,0-.08,0-.11,0Z"/><path class="cls-2" d="m81.42,49.83c-.21,0-.4-.08-.57-.24-1.02-.96-.93-4.91-.91-5.36,0-.11.08-.21.19-.24.11-.03.22.03.28.13.37.71,2.19,4.3,1.61,5.36-.11.2-.29.32-.53.34-.02,0-.05,0-.07,0Zm-.98-4.52c.03,1.41.2,3.39.76,3.92.11.1.2.11.25.1.08,0,.11-.04.14-.08.27-.5-.41-2.36-1.15-3.93Z"/></g></g></svg>