<?xml version="1.0" encoding="utf-8"?>
<!-- Generator: Adobe Illustrator 25.4.1, SVG Export Plug-In . SVG Version: 6.00 Build 0)  -->
<svg version="1.1" id="Layer_1" xmlns="http://www.w3.org/2000/svg" xmlns:xlink="http://www.w3.org/1999/xlink" x="0px" y="0px"
	 viewBox="0 0 212.6 141.7" style="enable-background:new 0 0 212.6 141.7;" xml:space="preserve">
<style type="text/css">
	.st0{fill:#1C1C1C;}
</style>
<g>
	<path class="st0" d="M133.8,38.7L110.1,25c-1-0.6-2.1-0.9-3.3-0.9c-1.2,0-2.3,0.3-3.3,0.9L79.7,38.7c-2,1.2-3.3,3.4-3.3,5.7v27.4
		c0,2.4,1.3,4.6,3.3,5.7l3.5,2l1,0.6V79V48.1c0-1.8,1-3.6,2.6-4.5l20-11.6L126,43.2l-9.2,5.3l-10-5.8l-10.6,6.1
		c-1.8,1-2.9,2.9-2.9,5v11.6v0.4l0.3,0.2l9.8,5.7v10.7L94.3,77l-1-0.6v1.1V85v0.4l0.3,0.2l9.8,5.7c1,0.6,2.2,0.9,3.3,0.9
		s2.3-0.3,3.3-0.9l23.7-13.7c2-1.2,3.3-3.4,3.3-5.7V44.4C137.1,42.1,135.8,39.9,133.8,38.7z M129.3,71.2l-19.2,11.1V71.6l9.8-5.7
		l0.3-0.2v-0.4V54.2l9.1-5.3L129.3,71.2z"/>
	<g>
		<g>
			<polygon class="st0" points="52.3,113.3 48,113.3 48,117.6 46,117.6 46,107.5 52.8,107.5 52.8,109.3 48,109.3 48,111.5 
				52.3,111.5 			"/>
			<path class="st0" d="M59.4,117.6h-2.1v-10.2h3.7c3,0,3.9,1.2,3.9,3.1c0,1.3-0.4,2.2-1.6,2.7l2.5,4.4h-2.5l-2.2-4h-1.8V117.6z
				 M59.4,111.8h1.8c1.3,0,1.5-0.6,1.5-1.3c0-0.7-0.2-1.3-1.5-1.3h-1.8V111.8z"/>
			<path class="st0" d="M69.4,117.6l4-10.4h1.4l4,10.4h-2.2l-0.9-2.6h-3.1l-0.9,2.6H69.4z M74.1,110.6l-0.9,2.7H75L74.1,110.6z"/>
			<polygon class="st0" points="89.7,117.6 85.2,111.3 85.2,117.6 83.2,117.6 83.2,107.5 84.8,107.5 89.3,113.8 89.3,107.5 
				91.3,107.5 91.3,117.6 			"/>
			<path class="st0" d="M100.7,107.3c1.3,0,2.4,0.2,3.2,0.5v1.9c-1.4-0.5-2.3-0.7-3.2-0.7c-1.8,0-2.4,1.6-2.4,3.5
				c0,1.9,0.6,3.5,2.4,3.5c0.9,0,1.8-0.1,3.2-0.6v1.9c-0.8,0.3-1.9,0.5-3.2,0.5c-3.4,0-4.5-2.4-4.5-5.3
				C96.1,109.7,97.3,107.3,100.7,107.3"/>
			<rect x="108.9" y="107.5" class="st0" width="2.1" height="10.2"/>
			<path class="st0" d="M123.6,114.5c0,1.5-0.8,3.4-4.3,3.4c-1,0-2.7-0.3-3.4-0.7v-1.9c0.5,0.2,1.8,0.7,3.4,0.7
				c1.7,0,2.2-0.7,2.2-1.6c0-0.8-0.5-1.1-1.8-1.2c-2.7-0.3-3.7-1.1-3.7-2.9c0-1.3,0.7-3.1,4-3.1c1.3,0,2.4,0.3,3.2,0.6v1.9
				c-1.4-0.6-2.3-0.7-3.2-0.7c-1.6,0-1.9,0.7-1.9,1.3c0,0.8,0.7,0.9,2,1.1C122.3,111.8,123.6,112.4,123.6,114.5"/>
			<path class="st0" d="M136.4,117.6h-2.1v-10.2h3.7c2.9,0,3.9,1.5,3.9,3.2c0,1.7-1,3.3-3.9,3.3h-1.6V117.6z M136.4,112.2h1.6
				c1.4,0,1.7-0.8,1.7-1.4c0-0.7-0.3-1.4-1.7-1.4h-1.6V112.2z"/>
			<path class="st0" d="M152.4,114.2v-6.7h2.1v6.9c0,3-2.7,3.5-4.1,3.5c-1.4,0-4.1-0.5-4.1-3.5v-6.9h2.1v6.7c0,1.7,1.4,1.9,2.1,1.9
				C151,116,152.4,115.9,152.4,114.2"/>
			<polygon class="st0" points="165.9,117.6 161.4,111.3 161.4,117.6 159.4,117.6 159.4,107.5 161,107.5 165.5,113.8 165.5,107.5 
				167.5,107.5 167.5,117.6 			"/>
		</g>
	</g>
</g>
</svg>
