<?xml version="1.0" encoding="UTF-8"?><svg xmlns="http://www.w3.org/2000/svg" viewBox="0 0 202.82 231.51"><defs><style>.cls-1{fill:#fff;}.cls-2{fill:#995a05;}.cls-3{fill:#d69338;}.cls-4{fill:#a3af80;}.cls-5{isolation:isolate;}.cls-6{fill:#e0ae6a;}.cls-7{fill:#5b3d73;}.cls-8{fill:#99a376;}.cls-9{fill:#c6cea5;}.cls-10{fill:#e87164;}.cls-11{fill:#ddd7e0;}.cls-12{fill:#3d294c;}.cls-13{fill:#5e7c4a;}.cls-14{mix-blend-mode:multiply;opacity:.71;}.cls-15{fill:#ffb09d;}.cls-16{fill:#cc7707;}</style></defs><g class="cls-5"><g id="Layer_2"><g id="Layer_1-2"><g><g><g><path class="cls-8" d="m6.07,74.31s-5.65-7.51-2.49-14.81c3.16-7.3,8.3-6.99,8.3-6.99-.23-7.09.09-14.51,6.18-16.59,10.82-3.69,12.6,11.35,12.6,11.35l15.35,42.16s-2.75,13.64-12.5,19.38c-9.76,5.74-26.47,5.58-32.09-6.48-3.69-7.92.49-19.67,4.65-28.02Z"/><path class="cls-4" d="m22.66,86.32c1.04-7.56,4-9.04,5.25-13.22s-4.06-6.05-4.21-16.03c-.15-9.98,6.23-13.59,9.81-18,3.59-4.41-1.36-24.59,10.52-24.5,9.65.07,8.13,14.83,8.28,18.72s5.19,8.25,5.19,8.25c0,0,12.25,4.93,11.97,14.43-.27,9.51-2.03,14.62,0,17.43,2.03,2.81,6.67,12.05,1.18,20.73-6.43,10.17-24.15,2.43-30.57,4.2-11.79,3.26-18.46-4.44-17.42-12.01Z"/><path class="cls-13" d="m43.21,123.09c-.12,0-.22-.1-.22-.22l-.02-81.6c0-.12.1-.22.22-.22s.22.1.22.22l.02,81.6c0,.12-.1.22-.22.22Z"/><path class="cls-13" d="m21.19,123.09c-.12,0-.22-.1-.22-.22v-59.21c-.01-.12.09-.22.21-.22s.22.1.22.22v59.21c.01.12-.09.22-.21.22Z"/><path class="cls-13" d="m43.19,83.87s-.09-.01-.13-.04c-.1-.07-.12-.21-.05-.31l12.82-18.35c.07-.1.21-.12.31-.06.1.07.12.21.05.31l-12.82,18.35c-.04.06-.11.1-.18.1Z"/><path class="cls-13" d="m43.19,59.72c-.08,0-.15-.04-.19-.11l-4.07-6.99c-.06-.11-.03-.24.08-.3.11-.06.24-.03.3.08l4.07,6.99c.06.11.03.24-.08.3-.04.02-.07.03-.11.03Z"/><path class="cls-13" d="m21.18,102.21c-.08,0-.16-.04-.2-.12l-8.5-15.67c-.06-.11-.02-.24.09-.3.11-.06.24-.02.3.09l8.5,15.67c.06.11.02.24-.09.3-.03.02-.07.03-.11.03Z"/><g><path class="cls-9" d="m77.44,35.87c-7.75,0-11.42,11.93-12.16,16.75-.62,4.06-10.08,1.64-11.61,11.48-1.12,7.22,6.1,13.15,2.51,15.97-3.59,2.82-11.49,8.13-4.26,19.83s19.84,2.27,23.99,2.86,4.24,5.28,10.26,5.87c6.02.58,13.5-5.97,10.77-14.45s-4.54-8.91-4.86-11.65c-.32-2.74,5.53-7.61,4.06-14.89-1.47-7.28-5.68-6.11-7.47-7.51s.92-24.25-11.24-24.25Z"/><path class="cls-13" d="m76.12,123.09c-.12,0-.22-.1-.22-.22l-.76-50.97c0-.12.1-.22.22-.23.12,0,.22.1.23.22l.76,50.97c0,.12-.1.22-.22.23h0Z"/><path class="cls-13" d="m75.7,94.59s-.09-.01-.12-.04c-.1-.07-.13-.21-.06-.31l11.33-16.69c.07-.1.21-.13.31-.06.1.07.13.21.06.31l-11.33,16.69c-.04.06-.11.1-.18.1Z"/><path class="cls-13" d="m75.73,101.18c-.06,0-.11-.02-.16-.06l-15.39-15.23c-.09-.09-.09-.23,0-.31.09-.09.23-.09.31,0l15.39,15.23c.09.09.09.23,0,.31-.04.04-.1.07-.16.07Z"/></g></g><path class="cls-8" d="m93.57,72.09s-5.65-7.51-2.49-14.81c3.16-7.3,8.3-6.99,8.3-6.99-.23-7.09.17-14.3,6.18-16.59,15.2-5.78,12.91,23.32,12.91,23.32l15.04,30.19s-2.75,13.64-12.5,19.38c-9.76,5.74-26.47,5.58-32.09-6.48-3.69-7.92.49-19.67,4.65-28.02Z"/><path class="cls-4" d="m114.65,92.79c1.04-7.56,4-9.04,5.25-13.22s-4.06-6.05-4.21-16.03c-.15-9.98,6.23-13.59,9.81-18,3.59-4.41-1.36-24.59,10.52-24.5,9.65.07,8.13,14.83,8.28,18.72.15,3.89,5.19,8.25,5.19,8.25,0,0,12.25,4.93,11.97,14.43-.27,9.51-2.03,14.62,0,17.43,2.03,2.81,6.67,12.05,1.18,20.73-6.43,10.17-24.15,2.43-30.57,4.2-11.79,3.26-18.46-4.44-17.42-12.01Z"/><path class="cls-13" d="m135.19,123.09c-.12,0-.22-.1-.22-.22l-.02-75.13c0-.12.1-.22.22-.22s.22.1.22.22l.02,75.13c0,.12-.1.22-.22.22Z"/><path class="cls-13" d="m108.69,123.09c-.12,0-.22-.1-.22-.22v-61.43c-.01-.12.08-.22.21-.22s.22.1.22.22v61.43c.01.12-.08.22-.21.22Z"/><path class="cls-13" d="m135.17,90.34s-.09-.01-.13-.04c-.1-.07-.12-.21-.05-.31l12.82-18.35c.07-.1.21-.12.31-.06.1.07.12.21.05.31l-12.82,18.35c-.04.06-.11.1-.18.1Z"/><path class="cls-13" d="m135.17,66.19c-.08,0-.15-.04-.19-.11l-4.07-6.99c-.06-.11-.03-.24.08-.3.1-.06.24-.03.3.08l4.07,6.99c.06.11.03.24-.08.3-.04.02-.07.03-.11.03Z"/><path class="cls-13" d="m108.68,99.99c-.08,0-.16-.04-.2-.12l-8.5-15.67c-.06-.11-.02-.24.09-.3.11-.06.24-.02.3.09l8.5,15.67c.06.11.02.24-.09.3-.03.02-.07.03-.11.03Z"/></g><g><g class="cls-14"><path class="cls-11" d="m202.82,227.04c0,2.47-33.07,4.47-73.87,4.47s-73.87-2-73.87-4.47,33.07-4.47,73.87-4.47,73.87,2,73.87,4.47Z"/></g><g><rect class="cls-12" x="88.53" y="28.61" width="42.41" height="62.62" rx="6.6" ry="6.6" transform="translate(219.47 119.84) rotate(180)"/><rect class="cls-7" x="92.31" y="28.61" width="42.41" height="62.62" rx="6.6" ry="6.6" transform="translate(227.04 119.84) rotate(180)"/><path class="cls-6" d="m115.73,55.1h-23.42c-.2,0-.37-.16-.37-.37s.16-.37.37-.37h23.42c.2,0,.37.16.37.37s-.16.37-.37.37Z"/><path class="cls-1" d="m102.95,148.42c0,.54-.44.98-.98.98s-.98-.44-.98-.98.44-.98.98-.98.98.44.98.98Z"/><polygon class="cls-15" points="159.41 197.18 158.08 213.86 139.83 212.47 139.83 197.85 159.41 197.18"/><polygon class="cls-15" points="92.19 163 75.47 162.26 76.21 143.97 90.82 143.45 92.19 163"/><path class="cls-3" d="m165.39,90.62s11.78,29.76,11.53,56.63c-.24,26.87-8.38,55.95-8.38,55.95l-35.73.68s6-28.53,6.52-35.1,1.85-48.17,1.85-48.17l.39-28.27,23.82-1.72Z"/><path class="cls-3" d="m120.28,90.62s-1.12,16.65-1.44,25.21c-.33,8.56-10.18,20.04-18.18,22.66-8,2.62-15.8,1.62-15.8,1.62l-1.03,31.05s27.02,7.24,46.01-4.64c18.98-11.88,17.75-36.64,17.75-36.64l1.41-39.93-28.73.67Z"/><path class="cls-16" d="m139.46,32.27c14.34-.03,25.2,11.06,25.79,25.38l.35,8.53s1.33,26.78.61,27.8c-.72,1.02-14.13,4.11-26.54,2.32-12.41-1.8-18.65-4.03-19.22-4.55-.36-.33-5.63-15.93-3.96-33.11.52-5.28-1.65-14.7.62-19.97,2.09-4.86,8.65-5.79,8.66-5.87.02-.22,6-.51,13.69-.52Z"/><path class="cls-7" d="m140.28,156.23c-.08,0-.16-.03-.23-.08-.16-.12-.19-.36-.06-.51,17.11-21.67,9.06-53.53,8.98-53.85-.03-.1,0-.21.05-.3.06-.09.16-.14.26-.15l10.84-1.05c.19-.02.38.13.4.33.02.2-.13.38-.33.4l-10.43,1.01c.89,3.85,7.06,33.47-9.21,54.07-.07.09-.18.14-.29.14Z"/><path class="cls-7" d="m123.51,101.87c-.13,0-.26,0-.39,0-.2,0-.36-.17-.35-.38,0-.2.15-.36.38-.36,6.43.22,7.01-4.45,7.03-4.65.02-.2.2-.36.4-.32.2.02.35.2.32.4,0,.05-.64,5.31-7.39,5.31Z"/><path class="cls-2" d="m62.25,139.98c-1.12.5-.84,7.87-1.08,8.49-.23.62,3.83,2.82,3.08,3.95-.74,1.13-2.88,2.4-3.96,4.06-1.01,1.56-3.47,28.51-3.27,33.8.02.43.42.77.89.74,1.17-.08,3.45-.32,5.77-.98,2.08-.59,4.21-1.54,5.58-3.03,3.59-3.87,5.69-12.5,8.12-15.47,2.43-2.98,7.89-6.04,7.11-8.04-.79-2-4.9-6-3.76-11.11,1.13-5.11,2.63-7.37,1.49-8.89-.72-.95-8.05-2.3-13.63-3.04-3.27-.44-5.94-.67-6.35-.49Z"/><path class="cls-7" d="m117.61,136.64c-.4,0-.79-.13-1.16-.4-2.2-1.58-3.03-7.68-3.06-7.94-.02-.16.06-.31.2-.38.14-.07.31-.04.42.07.93.96,5.55,5.86,4.94,7.81-.09.29-.34.67-.98.79-.12.02-.24.04-.37.04Zm-3.3-7.25c.35,1.83,1.16,5.25,2.56,6.26.31.22.62.3.96.24.31-.06.39-.19.42-.29.33-1.04-1.99-4.05-3.94-6.2Z"/><path class="cls-2" d="m137.14,229.01c.61,1.07,7.92.06,8.55.23.64.17,2.43-4.09,3.63-3.46,1.2.63,2.67,2.62,4.43,3.54,1.65.85,28.72.64,33.96-.08.43-.06.73-.49.64-.96-.2-1.16-.65-3.4-1.54-5.64-.8-2.02-1.94-4.04-3.57-5.26-4.2-3.19-13-4.43-16.2-6.56-3.21-2.12-6.79-7.26-8.7-6.28-1.91.99-5.49,5.46-10.69,4.84-5.2-.62-7.6-1.89-8.99-.61-.88.81-1.5,8.24-1.68,13.87-.12,3.3-.08,5.97.14,6.37Z"/><path class="cls-7" d="m137.14,229.01c.61,1.07,7.92.06,8.55.23.64.17,2.43-4.09,3.63-3.46,1.2.63,2.67,2.62,4.43,3.54,1.65.85,28.72.64,33.96-.08.43-.06.73-.49.64-.96-.2-1.16-.65-3.4-1.54-5.64h-49.82c-.12,3.3-.08,5.97.14,6.37Z"/><path class="cls-7" d="m62.26,139.83c-1.12.5-.9,7.92-1.14,8.54s3.81,2.86,3.05,4c-.75,1.14-2.89,2.4-3.99,4.07-1.02,1.56-3.68,28.69-3.51,34.01.02.44.41.78.88.75,1.17-.08,3.45-.3,5.78-.95l5.27-49.88c-3.27-.46-5.93-.71-6.35-.53Z"/><path class="cls-15" d="m134.32,25.36l.03,8.81s1.6,2.53,6.75,2.93c3.84.3,5.19-.57,5.19-.57l-.55-4.46-.54-4.35-9.32-2.02-1.56-.34Z"/><path d="m135.88,25.7c.02.24.12.52.26.85,1.99,4.4,7.38,5.33,9.6,5.52l-.54-4.35-9.32-2.02Z"/><path class="cls-15" d="m147.1,7.63s4.66,11.04,2.86,17.18c-1.8,6.15-7.41,5.11-10.76,3.87-3.35-1.23-4.88-3.31-4.88-3.31,0,0-3.15,1.03-5.22-1.92-2.06-2.95-.73-6.28,1.07-7.03,1.8-.75,3.92.57,3.92.57l-1.63-3.21s7.23-16.12,14.64-6.15Z"/><path d="m133.78,21.77c-.07,0-.15-.02-.21-.07l-3.98-2.84c-.16-.12-.2-.35-.08-.51.12-.16.35-.2.51-.08l3.98,2.84c.16.12.2.35.09.51-.07.1-.18.15-.3.15Z"/><path d="m130.16,21.73c-.16,0-.31-.11-.35-.27-.05-.2.07-.4.26-.45l2.61-.68c.19-.05.4.07.45.26.05.2-.07.4-.26.45l-2.61.68s-.06.01-.09.01Z"/><path d="m139.73,12.28c-.07,0-.14-.02-.2-.07-.15-.11-.18-.32-.06-.47,1.18-1.54,2.77-1.27,3.44-.91.16.09.22.29.14.45-.09.16-.29.22-.45.14-.06-.03-1.47-.75-2.59.72-.07.09-.17.13-.27.13Z"/><path d="m148.28,11.87c-.08,0-.16-.03-.23-.08-.92-.76-1.89-.21-1.93-.19-.17.1-.4.04-.5-.13-.1-.17-.04-.4.13-.5.06-.04,1.44-.83,2.76.25.16.13.18.36.05.52-.07.09-.18.13-.28.13Z"/><path d="m146.17,21.7s-.07,0-.1-.02c-.19-.06-.3-.26-.25-.45.94-3.19-.75-5.51-.77-5.54-.12-.16-.09-.39.07-.51.16-.12.39-.09.51.07.08.11,1.93,2.63.89,6.18-.05.16-.19.26-.35.26Z"/><path d="m148.25,16.11c-.16,0-.31-.11-.35-.27l-.56-2.02c-.05-.19.06-.4.25-.45.2-.06.4.06.45.25l.56,2.02c.05.19-.06.4-.25.45-.03,0-.07.01-.1.01Z"/><path d="m142.68,16.23c-.16,0-.31-.11-.35-.27l-.56-2.02c-.05-.19.06-.4.25-.45.2-.05.4.06.45.25l.56,2.02c.05.19-.06.4-.25.45-.03,0-.07.01-.1.01Z"/><path d="m148.04,10.11s-.96-1.77-3.16-1.78c-2.2,0-3.48,1.54-3.48,1.54,0,0,.98,3.7-2.01,5.68-2.98,1.98-5.3,1.43-5.3,1.43h-4.76s-.39-4.51-.39-4.51l7.64-6.2,6.62-1.91,4.5,2.62.34,3.12Z"/><path d="m144.43,23.79c-.86,0-2.32-.37-3.02-1.85-.09-.18,0-.4.17-.49.18-.09.4,0,.49.17.74,1.57,2.47,1.43,2.54,1.42.21-.02.38.13.4.33.02.2-.13.38-.33.4-.08,0-.16.01-.25.01Z"/><path class="cls-7" d="m130.54,29.62s5.22,12.24,6.14,27.74c.92,15.5-13.97,26.72-13.97,26.72,0,0,3.63-7.63,4.79-16.9,1.16-9.27-6.33-35.09-6.33-35.09,0,0,6.12-2.47,9.36-2.47Z"/><path class="cls-3" d="m128.99,15.87s23.49-7.45,24.95-9.46c1.45-2.01-6.22-.17-6.22-.17,0,0-3.98-9.53-14.5-5.04-9.59,4.1-4.23,14.66-4.23,14.66Z"/><path class="cls-10" d="m174.75,45.61s4.39,10.74-1.13,14.14c-5.52,3.4-10.2-2.17-10.91-5.14-.71-2.97,12.04-9,12.04-9Z"/><path class="cls-1" d="m153.61,57.11h5.24c1.48,0,2.68-1.2,2.68-2.68s-1.2-2.68-2.68-2.68h-5.24c-1.48,0-2.68,1.2-2.68,2.68s1.2,2.68,2.68,2.68Z"/><path class="cls-16" d="m146.47,32.44s.03-1.77-1.13-1.17-3.54.63-5.72.29-4.78-2.41-5.84-1.94c-1.06.47-.97,6.16-.97,6.16,0,0,1.58,3.09,7.49,3.25,5.92.16,7.67-3.42,7.67-3.42l-1.51-3.18Z"/><path class="cls-16" d="m179.08,53.51l-14.52,3.42,1.34,32.21s6.93-2.77,11.03-11.71,2.15-23.91,2.15-23.91Z"/><path class="cls-2" d="m165.62,82.97c-.19,0-.36-.15-.37-.35l-.81-19.56c0-.2.15-.37.35-.38.18-.04.37.15.38.35l.81,19.56c0,.2-.15.37-.35.38,0,0-.01,0-.02,0Z"/><path class="cls-2" d="m140.39,34.66c-.19,0-4.56-.07-7.63-2.28-.16-.12-.2-.35-.08-.51.12-.16.35-.2.51-.08,2.88,2.07,7.17,2.14,7.21,2.14.2,0,.36.17.36.37,0,.2-.17.36-.37.36Z"/><path class="cls-15" d="m125.36,48.85c1.45-.38,3.57,2.05,3.57,2.05,0,0,10.98-2.2,11.86-.82s-.87,3.83-.87,3.83c0,0,2.47,2.6,2.65,3.86s1.68,7.04-.74,9.41c-2.42,2.37-16.66,1.83-16.66,1.83l-5.47-11.97s4.19-7.81,5.64-8.19Z"/><path d="m127.5,51.56c-.17,0-.32-.12-.36-.29-.04-.2.08-.39.28-.43l7.09-1.5c.19-.04.39.08.43.28.04.2-.08.39-.28.43l-7.09,1.5s-.05,0-.08,0Z"/><path class="cls-16" d="m119.72,54.65l7.11,16.27-6.56,19.71s-19.46-.68-20.43-25.4c-.98-24.72,22.08-31.53,22.08-31.53l-2.2,20.96Z"/><path class="cls-15" d="m159.89,46.44s-5.89-3.45-6.24-.75c-.35,2.7,8.49,7.34,8.49,7.34l4.54-2.14-6.8-4.45Z"/><path class="cls-2" d="m104.02,61.89c-.08,0-.16-.03-.23-.08-.16-.13-.18-.36-.06-.51,4.22-5.25,15.53-4.65,16.01-4.62.2.01.36.18.34.39-.01.2-.19.36-.39.34-.11,0-11.41-.61-15.39,4.35-.07.09-.18.14-.29.14Z"/><path class="cls-2" d="m112.22,57.73c-2.45,0-6.83-.17-7.31-1.38-.1-.25-.11-.65.4-1.11,2.46-2.23,8,1.64,8.24,1.81.13.09.18.25.14.41-.05.15-.18.25-.34.26-.29,0-.67.01-1.12.01Zm-4.9-2.44c-.6,0-1.13.14-1.52.5-.18.17-.22.27-.21.3.2.52,3.07.9,6.52.91-1.33-.79-3.28-1.71-4.79-1.71Z"/><path class="cls-7" d="m146.47,32.44s9.75,12.09,13.7,21.3c3.95,9.21,4.93,16.69,4.93,16.69,0,0,3.98-20.16-2.85-30.09-6.83-9.93-15.77-7.89-15.77-7.89Z"/><path class="cls-15" d="m170.69,48.59s6.79.05,5.06,3.35c-1.73,3.31-13.7,6.09-15.38,2.6-1.68-3.48,10.32-5.96,10.32-5.96Z"/><path class="cls-15" d="m169.37,43.13s6.79.05,5.06,3.35c-1.73,3.31-13.7,6.09-15.38,2.6-1.68-3.48,10.32-5.96,10.32-5.96Z"/><path class="cls-15" d="m166.59,38.23s5.92-.98,4.91,2.16c-1.01,3.14-11.03,7.37-13.02,4.59-1.99-2.78,8.1-6.75,8.1-6.75Z"/><path d="m161.2,46.25c-.15,0-.3-.1-.35-.25-.06-.19.04-.4.23-.46l8.17-2.75c.19-.06.4.04.46.23.06.19-.04.4-.23.46l-8.17,2.75s-.08.02-.12.02Z"/><path d="m163.4,51.26c-.16,0-.31-.11-.35-.27-.05-.2.06-.4.26-.45l8.36-2.24c.2-.05.4.06.45.26.05.2-.06.4-.26.45l-8.36,2.24s-.06.01-.09.01Z"/></g></g></g></g></g></g></svg>