<?xml version="1.0" encoding="UTF-8"?><svg id="Layer_2" xmlns="http://www.w3.org/2000/svg" viewBox="0 0 202.71 159.83"><defs><style>.cls-1{fill:#ebc99c;}.cls-2{fill:#fff;}.cls-3{fill:#995a05;}.cls-4{fill:#d69338;}.cls-5{fill:#9574ad;}.cls-6{fill:#ad9574;}.cls-7{fill:#ddd0d0;}.cls-8{fill:#590599;}.cls-9{fill:#4d3180;}.cls-10{fill:#ffba57;}.cls-11{fill:#7a5299;}.cls-12{fill:#ffb09d;}.cls-13{fill:#f9ae64;}</style></defs><g id="Layer_1-2"><g><polygon class="cls-4" points="104.39 45.46 114.09 28.73 121.76 44.79 111.17 54.35 104.39 45.46"/><rect class="cls-4" x="62.41" y="49.13" width="11.31" height="14.79"/><path class="cls-2" d="m73.73,49.13c0,.36-2.53.65-5.66.65s-5.66-.29-5.66-.65,2.53-.65,5.66-.65,5.66.29,5.66.65Z"/><path class="cls-4" d="m73.73,62.78c-2.33,0-4.23-2.45-4.23-5.46s1.9-5.46,4.23-5.46,4.23,2.45,4.23,5.46-1.9,5.46-4.23,5.46Zm0-9.93c-1.78,0-3.23,2-3.23,4.46s1.45,4.46,3.23,4.46,3.23-2,3.23-4.46-1.45-4.46-3.23-4.46Z"/><rect class="cls-3" x="130.88" y="94.68" width="7.07" height="48.22"/><path class="cls-7" d="m202.71,154.56c0,2.41-45.38,4.37-101.35,4.37S0,156.98,0,154.56s45.38-4.37,101.35-4.37,101.35,1.96,101.35,4.37Z"/><path class="cls-3" d="m149.31,145.79h-29.67c-1.23,0-2.22-.99-2.22-2.22s.99-2.22,2.22-2.22h29.67c1.23,0,2.22.99,2.22,2.22s-.99,2.22-2.22,2.22Z"/><circle class="cls-3" cx="118.83" cy="149.19" r="4.78"/><circle class="cls-3" cx="134.41" cy="149.19" r="4.78"/><circle class="cls-3" cx="149.93" cy="149.19" r="4.78"/><path class="cls-8" d="m155.16,36.65s14.85,8.85,12.13,37.33c-2.45,25.67-26.85,35.14-46.4,28.53-19.55-6.61-16.29-25.68-16.29-25.68l50.56-40.18Z"/><path class="cls-2" d="m155.36,90.64c-.07,0-.14-.03-.19-.09-.09-.11-.08-.26.03-.35,5.04-4.27,7.13-13.03,7.15-13.12.03-.13.16-.22.3-.19.13.03.22.17.19.3-.02.09-2.14,9.01-7.31,13.39-.05.04-.1.06-.16.06Z"/><path class="cls-4" d="m127.73,22.91s-9.92.9-13.64,5.83c-3.72,4.92,1.2,35.8,1.46,36.23.27.43,7.17,3.58,19.22,3.3,12.04-.27,14.97-2.64,15.37-3.3.4-.66-.28-35.65-3.21-38.61s-11.94-4.35-19.2-3.45Z"/><polygon class="cls-12" points="114.46 126.16 114.46 139.3 124.46 143.08 130.76 136.02 131.8 123.86 114.46 126.16"/><path class="cls-13" d="m154.1,83.28c.32,2.54-6.03,5.43-14.18,6.45-8.15,1.02-15.02-.22-15.34-2.76-.32-2.54,6.03-5.43,14.18-6.45,8.15-1.02,15.02.22,15.34,2.76Z"/><polygon class="cls-12" points="95.73 123.44 95.73 136.58 106.39 140.36 113.11 133.29 114.21 121.14 95.73 123.44"/><path class="cls-6" d="m117.55,62.57s-25.48,12.82-28.61,18.03c-3.13,5.21.32,47.65.32,47.65l22.6.3,3.13-23.72,17.17-39.95-14.6-2.31Z"/><path class="cls-6" d="m148.51,65.27s1.03,11.39.66,15.13c-.37,3.74-12.16,12.54-12.16,12.54l-.58,36.46-26.13,1.17s-.57-41.66-.13-45.58c.44-3.92,17.82-18.19,17.82-18.19l20.52-1.52Z"/><path class="cls-12" d="m133.32,16.97l.84,6.58s-.95,2.04-4.76,2.85c-2.84.6-3.93.08-3.93.08l-.02-3.38-.02-3.3,6.76-2.41,1.13-.41Z"/><path d="m132.18,17.38c0,.18-.04.4-.11.66-1.06,3.48-4.99,4.7-6.63,5.05l-.02-3.3,6.76-2.41Z"/><path class="cls-12" d="m122.05,4.97s-2.41,8.69-.46,13.11c1.94,4.41,6.03,3.09,8.41,1.85,2.38-1.25,3.32-2.95,3.32-2.95,0,0,2.45.46,3.71-1.94,1.25-2.4-.07-4.76-1.48-5.14-1.42-.38-2.87.81-2.87.81l.91-2.56s-6.97-11.34-11.53-3.17Z"/><path d="m123.87,15.3c-.09,0-.18-.05-.23-.14-.8-1.66.16-3.62.21-3.7.06-.12.21-.17.34-.11.12.06.17.21.11.34,0,.02-.89,1.82-.2,3.26.06.12,0,.27-.12.33-.04.02-.07.02-.11.02Z"/><path d="m133.56,14.47s-.1-.01-.14-.04c-.11-.08-.14-.23-.06-.35l1.87-2.68c.08-.12.24-.14.35-.06.11.08.14.23.06.35l-1.87,2.68c-.05.07-.13.11-.21.11Z"/><path d="m135.81,13.49h-1.57c-.14,0-.25-.12-.25-.25s.11-.25.25-.25h1.57c.14,0,.25.12.25.25s-.11.25-.25.25Z"/><path d="m127.12,11.7c-.14,0-.25-.11-.25-.25l-.03-1.55c0-.14.11-.25.25-.25.14,0,.25.11.25.25l.03,1.55c0,.14-.11.25-.25.25h0Z"/><path d="m122.55,12.01c-.14,0-.25-.11-.25-.25v-1.55c0-.14.11-.25.25-.25s.25.11.25.25v1.55c0,.14-.11.25-.25.25h0Z"/><path d="m127.75,8.76c-.08,0-.15-.03-.2-.1-.51-.67-1.49-.27-1.5-.26-.13.05-.27,0-.33-.14-.05-.13,0-.27.14-.33.05-.02,1.35-.54,2.09.42.08.11.06.27-.05.35-.04.03-.1.05-.15.05Z"/><path d="m121.76,9.02s-.08,0-.12-.03c-.12-.07-.16-.22-.1-.34.01-.03.35-.62.93-.77.31-.08.63-.02.94.18.12.08.15.23.08.35s-.23.15-.35.08c-.19-.12-.37-.16-.55-.12-.37.09-.62.52-.62.53-.04.08-.13.13-.22.13Z"/><path d="m131.97,11.37s-2.44-1.17-2.65-3.46c-.21-2.29.21-2.95.21-2.95,0,0-2.61.25-4.85-.12-1.46-.25-2.13-.66-2.13-.66l-.49.79c-.66.07-2.74-3.67-1.86-4.52.88-.85,6.42.2,6.42.2,0,0,5.35-2.13,9.18,1.32,3.83,3.46.89,8.64.89,8.64,0,0-1.26-1.89-4.7.75Z"/><path d="m126.14,17.73c-.63,0-1.11-.32-1.14-.34-.07-.05-.11-.13-.11-.22,0-.09.05-.16.13-.21l2-1.11c.06-.03.13-.04.19-.02.06.02.12.07.15.13.01.02.26.52.09,1-.09.27-.29.48-.59.61-.25.12-.5.16-.73.16Zm-.44-.57c.26.08.61.12.96-.04.17-.08.28-.19.33-.33.04-.12.04-.25.01-.35l-1.3.72Z"/><path class="cls-9" d="m116,151.44s-.47-21.12-3.75-20.68-6.56,3.52-6.56,3.52c0,0-7.5-3.96-10.78-1.76-3.28,2.2-5.17,7.04-5.17,7.04l-18.27,11.88s-2.21,3.52-1.57,5.28c.5,1.37,28.29.6,40.48.2,3.14-.1,5.63-2.53,5.63-5.48h0Z"/><path class="cls-11" d="m106.57,146.3s4.58-11.21,7.54-13.15c2.96-1.94,10.36,4.21,10.36,4.21,0,0,6.2-6.53,7.72-3.1,1.52,3.42,2.26,15.68,1.11,18.39-1.16,2.71-9.66,7.21-20.83,7.18-5.26-.01-12.85-1.64-12.86-3.45,0-2.84,5.16-8.21,6.95-10.08Z"/><path class="cls-2" d="m119.74,142.67h-8.57c-.14,0-.25-.11-.25-.25s.11-.25.25-.25h8.57c.14,0,.25.11.25.25s-.11.25-.25.25Z"/><path class="cls-2" d="m118.84,146.55h-9.08c-.14,0-.25-.11-.25-.25s.11-.25.25-.25h9.08c.14,0,.25.11.25.25s-.11.25-.25.25Z"/><path class="cls-2" d="m94.26,141.36s-5.5-.75-5.5-.75c-.14-.02-.23-.15-.21-.28.02-.14.14-.22.28-.21l5.46.75c.14.02.23.15.21.28-.02.12-.12.22-.25.22Z"/><path class="cls-2" d="m92.89,145.13s-9.23-1.4-9.23-1.4c-.14-.02-.23-.15-.21-.28.02-.14.14-.23.28-.21l9.19,1.4c.14.02.23.15.21.28-.02.12-.12.21-.25.21Z"/><path class="cls-3" d="m109.15,127.48c-.14,0-.25-.11-.25-.24-.04-1.59-.96-38.96,0-43.53.62-2.96,8.72-11.11,10.38-12.75l-6.67-2.45c-.13-.05-.2-.19-.15-.32.05-.13.19-.2.32-.15l7.04,2.59c.08.03.14.1.16.18.02.08,0,.17-.07.23-.1.1-9.87,9.69-10.52,12.77-.95,4.52,0,43.03,0,43.41,0,.14-.11.25-.24.26h0Z"/><path class="cls-12" d="m129.24,60.61s-5.8,3.18-7.02,3.16c-1.22-.02-5.62,0-5.9-.89l1.3-2.99s-2.31,1.3-4.05.64c-1.74-.66-3.92-2.14-4.47-3.4-.56-1.26,1.37-1.22,1.37-1.22,0,0-3.3-2.6-.71-4.06,2.59-1.46,15.14-3.02,20.4-.53,5.26,2.49-.91,9.29-.91,9.29Z"/><path d="m110.46,56.16c-.09,0-.18-.05-.23-.14-.06-.12,0-.27.12-.33,2.82-1.35,5.9-1.29,6.03-1.29.14,0,.25.12.24.26,0,.14-.09.25-.26.24-.03,0-3.1-.06-5.81,1.24-.03.02-.07.02-.11.02Z"/><path class="cls-3" d="m136.82,95.14s-.08-.01-.12-.03c-.51-.29-4.99-2.86-4.81-4.47.05-.44.39-.77,1.03-.96.74-.22,1.41-.14,2,.26,1.77,1.19,2.14,4.78,2.15,4.93,0,.09-.03.18-.11.23-.04.03-.09.04-.14.04Zm-3.13-5.08c-.2,0-.41.03-.63.1-.42.13-.65.31-.68.53-.1.9,2.32,2.66,4.12,3.73-.16-1-.65-3.25-1.86-4.07-.29-.2-.61-.29-.95-.29Z"/><path class="cls-2" d="m120.29,61.87h-31.58l-9.02-20.4h30.34c.76,0,1.44.45,1.75,1.14l8.52,19.26Z"/><path class="cls-5" d="m117.55,61.87h-31.58l-8.05-18.21c-.46-1.03.3-2.19,1.43-2.19h29.18l9.02,20.4Z"/><path d="m130.88,64.45h-44.59c-.71,0-1.29-.58-1.29-1.29s.58-1.29,1.29-1.29h44.59c.71,0,1.29.58,1.29,1.29s-.58,1.29-1.29,1.29Z"/><path class="cls-10" d="m148.65,66.44c-8.62,0-15.66-1.77-15.74-1.79-.16-.04-.25-.2-.21-.36.04-.16.19-.25.36-.21.07.02,7.32,1.83,16.09,1.77.16,0,.29.13.29.29,0,.16-.13.29-.29.29-.17,0-.33,0-.5,0Z"/><path class="cls-3" d="m162.51,68.68H36.73c-1.28,0-2.32-1.04-2.32-2.32s1.04-2.32,2.32-2.32h125.79c1.28,0,2.32,1.04,2.32,2.32s-1.04,2.32-2.32,2.32Z"/><path class="cls-3" d="m115.46,124.11c-.13,0-.24-.1-.25-.24,0-.14.1-.25.24-.26l20.54-1.08c.14,0,.25.1.26.24,0,.14-.1.25-.24.26l-20.54,1.08h-.01Z"/><path class="cls-3" d="m109.05,123.04h-18.33c-.14,0-.25-.11-.25-.25s.11-.25.25-.25h18.33c.14,0,.25.11.25.25s-.11.25-.25.25Z"/><path class="cls-3" d="m183.85,156.3c-.36,0-.71-.18-.93-.5l-57.49-87.58c-.34-.51-.19-1.2.32-1.54s1.2-.19,1.54.32l57.49,87.58c.34.51.19,1.2-.32,1.54-.19.12-.4.18-.61.18Z"/><path class="cls-3" d="m13.36,156.3c-.21,0-.42-.06-.61-.18-.51-.34-.65-1.02-.32-1.54l57.49-87.58c.34-.51,1.03-.65,1.54-.32.51.34.65,1.02.32,1.54L14.29,155.8c-.21.32-.57.5-.93.5Z"/><path class="cls-2" d="m100.35,51.67c0,1.48-1.2,2.68-2.68,2.68s-2.68-1.2-2.68-2.68,1.2-2.68,2.68-2.68,2.68,1.2,2.68,2.68Z"/><path class="cls-4" d="m139.13,23.32s10.91.85,16.68,9.69c5.91,9.04,5.05,18.21,5.05,18.21l-18.95-1.56-2.78-26.34Z"/><path class="cls-12" d="m158.97,51.02s1.86,8.1-3.66,11.93c-5.35,3.7-26.07-2.34-26.07-2.34l-.06-9.66,15.05-1.17,14.75,1.24Z"/><path class="cls-1" d="m125.74,27.1c-1.32,0-2.18-.17-2.21-.17-.14-.03-.22-.16-.2-.29.03-.14.15-.22.29-.2.07.01,6.79,1.29,11.21-3.52.09-.1.25-.11.35-.01.1.09.11.25.01.35-3,3.27-7.01,3.84-9.47,3.84Z"/><path class="cls-1" d="m141.91,49.91c-.13,0-.24-.1-.25-.22l-.55-5.18c-.01-.14.09-.26.22-.28.14,0,.26.09.28.22l.55,5.18c.01.14-.09.26-.22.28,0,0-.02,0-.03,0Z"/><path class="cls-1" d="m116,51.46c-.14,0-.25-.11-.25-.25v-9.75c0-.14.11-.25.25-.25s.25.11.25.25v9.75c0,.14-.11.25-.25.25Z"/></g></g></svg>